# xmcd
#
# Track frame offsets: 
#        150
#        56113
#        105391
#        157378
#        199185
#        226543
#        272632
#        309177
#
# Disc length: 4567 seconds
#
# Revision: 0
# Processed by: cddbd v1.5.2PL0 Copyright (c) Steve Scherf et al.
# Submitted via: ExactAudioCopy v0.95b4
#
DISCID=6311d508
DTITLE=Tsvetan Nedyalkov, Veselin Koychev, Ivan Lechev - Acoustic Trio
DTITLE=3000
DYEAR=2009
DGENRE=Acoustic
TTITLE0=Acoustic Song
TTITLE1=Banishora Forever
TTITLE2=Beethoven
TTITLE3=Bossa Nova
TTITLE4=Podzim Sum Male
TTITLE5=Gang
TTITLE6=Goodbue Pork Pie Hat
TTITLE7=Bugs
EXTD=
EXTT0=
EXTT1=
EXTT2=
EXTT3=
EXTT4=
EXTT5=
EXTT6=
EXTT7=
PLAYORDER=
